<svg width="100" height="100" viewBox="0 0 100 100" fill="none" xmlns="http://www.w3.org/2000/svg">
<path d="M50 99.9999C43.3145 100.013 36.6951 98.6763 30.5383 96.0707C24.597 93.561 19.1995 89.9216 14.6452 85.3549C10.0786 80.8004 6.43939 75.4029 3.92949 69.4618C1.32384 63.3049 -0.0126241 56.6855 9.36706e-05 50C-0.012888 43.3138 1.32359 36.6938 3.92949 30.5363C6.43935 24.5951 10.0785 19.1977 14.6452 14.6432C19.1994 10.0762 24.597 6.43654 30.5383 3.92645C36.6953 1.32158 43.3147 -0.0137831 50 0.000107259C56.6855 -0.0128795 63.305 1.32342 69.4617 3.92933C75.403 6.43943 80.8005 10.0791 85.3548 14.6461C89.9215 19.2005 93.5606 24.598 96.0705 30.5392C98.676 36.6957 100.012 43.3148 99.9999 50C100.013 56.6859 98.6763 63.3056 96.0705 69.4628C93.5606 75.4039 89.9215 80.8014 85.3548 85.3558C80.8005 89.9225 75.403 93.5619 69.4617 96.0716C63.3048 98.6769 56.6854 100.013 50 99.9999ZM37.0481 28.8086V73.1148H49.8911V52.1982C49.8911 44.2316 54.0735 39.8452 61.6676 39.8452C62.4921 39.8452 63.199 39.903 64.0206 39.9687L64.5529 40.0108V28.148C57.6902 28.148 52.4264 30.4032 49.3166 34.6541V28.8067L37.0481 28.8086Z" fill="#22B573"/>
</svg>
