<svg width="232" height="247" viewBox="0 0 232 247" fill="none" xmlns="http://www.w3.org/2000/svg">
<path d="M91.5019 3.98063C5.90189 28.7806 -3.83145 96.9806 2.00189 127.981C12.3352 138.647 54.1298 154.19 76.0019 189.981C87.0019 207.981 139.002 268.481 189.502 237.481C229.902 212.681 233.669 154.147 230.502 127.981C219.835 76.314 177.102 -20.8194 91.5019 3.98063Z" fill="#D3F0E3"/>
<path d="M182.98 106.663C182.333 100.189 171.567 102.68 165.857 103.181C162.891 96.3246 159.264 89.774 155.027 83.6216C145.057 69.6842 137.88 71.0914 134.344 71.0914C129.622 71.0914 93.1399 70.8421 78.2426 71.0914C63.3453 71.3406 53.6648 98.2042 49.94 103.181C49.94 103.181 33.7681 98.8282 33.0575 104.671C32.5271 110.151 35.7923 111.136 42.9908 112.626C32.5607 154.922 44.7285 157.162 44.7285 157.162V170.341C44.7285 174.824 49.94 174.938 49.94 174.938H61.109C64.3335 174.938 64.3335 169.353 64.3335 169.353V158.403H151.46V170.341C151.46 176.064 157.17 174.824 157.17 174.824H166.362C171.075 174.824 171.574 169.85 171.574 169.85V157.162C182.497 147.206 174.551 115.866 173.312 111.885C176.538 111.636 183.365 110.404 182.987 106.661" fill="#22B573"/>
<path opacity="0.1" d="M173.315 112.387C174.553 116.338 182.488 147.429 171.579 157.305V169.892C171.579 169.892 171.082 174.826 166.373 174.826H157.2C157.2 174.826 151.495 176.064 151.495 170.38V158.536H80.5231L90.6119 148.495L90.7587 148.341L100.414 138.731L155.057 84.3464C159.287 90.446 162.91 96.9448 165.874 103.75C171.579 103.253 182.333 100.782 182.98 107.204C183.358 110.916 176.538 112.138 173.315 112.386" fill="#242E42"/>
<path d="M148.96 109.5H70.5668C65.8768 109.5 55.6978 111.155 61.4432 100.46C62.5604 98.4127 64.0224 95.1865 64.0224 95.1865C66.7289 89.4093 69.8225 81.3764 78.948 81.3764H132.458C136.177 81.0695 139.873 82.193 142.792 84.5178C146.238 87.5961 148.937 91.4187 150.686 95.6956C154.145 102.473 158.579 109.506 148.958 109.506" fill="#3C3C3C"/>
<path d="M128.045 81.3764L99.8293 109.592H80.5231L108.741 81.3764H128.045Z" fill="#EDEDED"/>
<path d="M144.383 84.5285L119.425 109.592H105.771L133.867 81.3765C137.644 81.0669 141.399 82.1924 144.383 84.5285Z" fill="#EDEDED"/>
<path d="M63.607 148.205C58.5303 147.883 53.5627 146.589 48.9748 144.392C45.2624 142.357 46.4999 134.731 46.8676 133.785C47.3108 133.008 48.0212 132.418 48.8666 132.125C49.7121 131.833 50.6351 131.857 51.4639 132.194C55.1168 133.609 58.8956 134.674 62.7496 135.376C68.3942 136.627 69.4443 139.698 70.0648 143.115C70.6853 146.533 67.2044 148.205 63.607 148.205Z" fill="#4BD896"/>
<path d="M129.235 149.188C116.422 149.85 103.583 149.85 90.7693 149.188C83.2755 148.657 75.5325 149.981 78.0322 137.808C89.7722 139.131 128.238 138.869 137.729 137.808C139.727 143.365 137.729 148.394 129.244 149.188" fill="#3C3C3C"/>
<path d="M167.024 144.392C162.435 146.589 157.466 147.884 152.388 148.205C148.792 148.205 145.317 146.525 145.941 143.107C146.565 139.688 147.611 136.619 153.258 135.365C157.111 134.664 160.889 133.598 164.542 132.183C165.37 131.847 166.293 131.823 167.139 132.115C167.984 132.408 168.694 132.997 169.138 133.774C169.509 134.727 170.75 142.355 167.031 144.381" fill="#4BD896"/>
</svg>
