<svg width="232" height="247" viewBox="0 0 232 247" fill="none" xmlns="http://www.w3.org/2000/svg">
<path d="M91.5019 3.98063C5.90189 28.7806 -3.83145 96.9806 2.00189 127.981C12.3352 138.647 54.1298 154.19 76.0019 189.981C87.0019 207.981 139.002 268.481 189.502 237.481C229.902 212.681 233.669 154.147 230.502 127.981C219.835 76.314 177.102 -20.8194 91.5019 3.98063Z" fill="#D3F0E3"/>
<path d="M115.501 186C107.144 186.016 98.8696 184.345 91.1734 181.088C83.7468 177.951 77 173.402 71.3072 167.693C65.5988 162.001 61.0497 155.254 57.9125 147.828C54.6548 140.132 52.984 131.858 53.0001 123.501C52.9841 115.144 54.6549 106.87 57.9125 99.1745C61.0498 91.7484 65.5988 85.0019 71.3072 79.3093C77 73.6009 83.7468 69.0521 91.1734 65.9151C98.8694 62.6568 107.144 60.985 115.501 61.0001C123.859 60.9841 132.133 62.655 139.829 65.9124C147.256 69.0493 154.003 73.5982 159.696 79.3066C165.404 84.9993 169.952 91.7457 173.089 99.1718C176.346 106.868 178.016 115.142 178 123.499C178.016 131.855 176.346 140.129 173.089 147.825C169.952 155.252 165.404 161.998 159.696 167.691C154.003 173.399 147.256 177.948 139.829 181.085C132.133 184.343 123.859 186.015 115.501 186ZM100.641 96.4575V150.405H116.284V124.935C116.284 115.236 121.377 109.895 130.624 109.895C131.617 109.895 132.479 109.963 133.476 110.041L134.134 110.094V95.6553C125.782 95.6553 119.368 98.4026 115.582 103.578V96.4575H100.641Z" fill="#22B573"/>
</svg>
