<svg width="232" height="247" viewBox="0 0 232 247" fill="none" xmlns="http://www.w3.org/2000/svg">
<path d="M91.5019 3.98063C5.90189 28.7806 -3.83145 96.9806 2.00189 127.981C12.3352 138.647 54.1298 154.19 76.0019 189.981C87.0019 207.981 139.002 268.481 189.502 237.481C229.902 212.681 233.669 154.147 230.502 127.981C219.835 76.314 177.102 -20.8194 91.5019 3.98063Z" fill="#D3F0E3"/>
<path d="M116.501 186C108.144 186.016 99.8696 184.345 92.1734 181.088C84.7468 177.951 78 173.402 72.3072 167.693C66.5988 162.001 62.0497 155.254 58.9125 147.828C55.6548 140.132 53.984 131.858 54.0001 123.501C53.9841 115.144 55.6549 106.87 58.9125 99.1745C62.0498 91.7484 66.5988 85.0019 72.3072 79.3093C78 73.6009 84.7468 69.0521 92.1734 65.9151C99.8694 62.6568 108.144 60.985 116.501 61.0001C124.859 60.9841 133.133 62.655 140.829 65.9124C148.256 69.0493 155.003 73.5982 160.696 79.3066C166.404 84.9993 170.952 91.7457 174.089 99.1718C177.346 106.868 179.016 115.142 179 123.499C179.016 131.855 177.346 140.129 174.089 147.825C170.952 155.252 166.404 161.998 160.696 167.691C155.003 173.399 148.256 177.948 140.829 181.085C133.133 184.343 124.859 186.015 116.501 186ZM89.562 143.158V154.407H142.007V143.157H112.324V128.273H133.094V119.876H112.324V117.368C112.324 113.219 113.56 110.034 115.979 107.903C118.374 105.8 121.919 104.733 126.516 104.733C131.046 104.568 135.536 105.645 139.498 107.849L143.737 96.772C138.388 93.9434 132.39 92.5698 126.342 92.7886C108.73 92.7886 98.2149 102.073 98.2149 117.624V119.872H89.5607V128.269H98.2149V143.153L89.562 143.158Z" fill="#22B573"/>
</svg>
